<svg id="Layer_1" data-name="Layer 1" xmlns="http://www.w3.org/2000/svg" viewBox="0 0 43.82 46.65"><defs><style>.cls-1{fill:#fff;stroke:#000;stroke-miterlimit:10;stroke-width:3px;}</style></defs><title>starsHome</title><path class="cls-1" d="M35.23,8.66a2.34,2.34,0,0,1-2.7-1.55,37.14,37.14,0,0,0-2.47-4.25c-1.18,1.83-2.51,3.33-3.12,5.07-.46,1.33-1.1,1.49-2.22,1.74-2,.45-4.11.5-6.09,1.84,1.06,1,2,1.9,3,2.74a5.24,5.24,0,0,1,1.82,4.9c-.24,2.47-.06,5-.06,7.67.53-.28.95-.46,1.32-.7C26.39,25,28.15,24,29.77,22.8a2.57,2.57,0,0,1,3.31,0c1.54.92,3.25,1.57,5.09,2.44-.23-2.51-.47-4.73-.63-7a3.9,3.9,0,0,1,.24-2c.67-1.33,1.52-2.57,2.31-3.84.67-1.09,1.36-2.16,2-3.24l-.24-.58C39.68,8.63,37.45,8.57,35.23,8.66Z"/><path class="cls-1" d="M14.41,31a1.68,1.68,0,0,1-1.95-1.12,27.69,27.69,0,0,0-1.79-3.08,19.83,19.83,0,0,0-2.26,3.67c-.33,1-.79,1.08-1.6,1.26-1.43.33-3,.37-4.41,1.33.77.72,1.44,1.38,2.14,2a3.81,3.81,0,0,1,1.32,3.54c-.18,1.79,0,3.61,0,5.56.38-.21.68-.34.95-.51,1.24-.79,2.52-1.53,3.7-2.41a1.86,1.86,0,0,1,2.39,0c1.11.67,2.35,1.14,3.68,1.77-.17-1.82-.34-3.43-.46-5a2.87,2.87,0,0,1,.18-1.42c.48-1,1.1-1.87,1.67-2.79l1.48-2.34L19.24,31C17.63,31,16,31,14.41,31Z"/></svg>